<svg width="309" height="310" viewBox="0 0 309 310" fill="none" xmlns="http://www.w3.org/2000/svg">
<g filter="url(#filter0_dd_12_1531)">
<mask id="mask0_12_1531" style="mask-type:alpha" maskUnits="userSpaceOnUse" x="24" y="8" width="261" height="262">
<circle cx="154.5" cy="139.329" r="130.4" fill="#C4C4C4"/>
</mask>
<g mask="url(#mask0_12_1531)">
<circle cx="154.5" cy="139.329" r="130.4" fill="white"/>
<path d="M229.921 262.628C229.373 252.76 221.516 246.912 217.495 238.506C211.831 226.629 221.881 216.578 208.907 204.883C195.932 193.371 202.511 188.071 194.836 178.752C186.978 169.432 171.08 172.173 171.08 172.173H138.553C138.553 172.173 122.655 169.432 114.798 178.752C106.94 188.071 113.701 193.371 100.727 204.883C87.7525 216.395 97.803 226.446 92.1382 238.506C89.7626 243.44 85.9251 247.278 83.1841 252.029C70.0271 273.409 90.1281 300.271 113.153 300.271C113.153 300.271 196.663 300.271 196.846 300.271C205.983 300.271 214.937 296.434 221.333 289.855C227.911 282.546 230.47 272.313 229.921 262.628Z" fill="#FF647C"/>
<path d="M154.634 155.91L138.919 153.351C138.919 153.351 138.919 174 138.919 188.437C138.919 202.325 153.538 205.614 154.634 205.979C155.731 205.797 170.167 202.507 170.167 188.619C170.167 174.183 170.167 153.534 170.167 153.534L154.634 155.91Z" fill="#F9D3B7"/>
<path d="M154.634 133.616L170.349 131.057C170.349 131.057 170.349 151.707 170.349 166.143C170.349 173.087 166.695 177.472 163.04 180.031C159.385 182.589 154.999 183.685 150.431 183.503C146.411 183.32 141.112 181.493 139.467 177.838C138.37 175.28 139.101 171.259 139.101 166.326C139.101 151.889 139.101 131.24 139.101 131.24L154.634 133.616Z" fill="#F7B7A1"/>
<path d="M125.396 126.489C125.396 126.489 125.214 123.748 119.731 122.652C114.249 121.555 112.239 140.377 122.29 142.387C132.34 144.397 131.244 130.509 125.396 126.489Z" fill="#F4C19F"/>
<path d="M176.38 136.722C176.38 136.722 177.659 134.164 183.141 135.26C188.623 136.357 183.141 154.448 173.273 152.438C163.223 150.61 169.618 138.184 176.38 136.722Z" fill="#F4C19F"/>
<path d="M143.122 172.721C127.954 169.615 118.087 154.813 121.193 139.829L125.396 118.997C128.503 103.83 143.304 93.9619 158.289 97.0684C173.456 100.175 183.324 114.977 180.217 129.961L176.014 150.793C173.09 165.96 158.289 175.828 143.122 172.721Z" fill="#F9D3B7"/>
<path d="M172.36 148.417C174.004 140.012 163.04 140.56 150.248 138.001C137.274 135.443 127.406 130.692 125.762 139.098C124.117 147.504 136.178 141.108 149.152 143.849C162.126 146.59 170.532 157.006 172.36 148.417Z" fill="#F7B7A1"/>
<path d="M190.268 128.865C182.958 118.997 187.527 119.728 186.43 109.86C185.334 99.9922 174.735 91.5863 174.735 91.5863C174.735 91.5863 184.968 83.1804 177.659 77.1501C170.349 70.9371 163.04 72.5817 163.04 72.5817C163.04 72.5817 156.279 60.1556 143.487 67.6478C132.523 74.0436 138.371 82.6322 142.756 86.4697C138.919 87.9316 130.878 91.5863 127.224 97.9821C122.29 106.571 126.493 108.398 116.077 114.611C105.661 121.007 126.675 131.057 121.011 138.732C115.346 146.407 119.183 150.793 119.183 150.793C119.183 150.793 117.904 144.397 123.752 141.656C129.599 138.915 131.792 134.347 126.675 124.844C121.742 115.525 156.644 124.113 166.146 104.926C167.426 126.306 184.42 127.403 176.197 134.164C167.974 140.925 168.157 146.042 172.542 150.793C176.928 155.544 173.273 161.026 173.273 161.026C173.273 161.026 178.573 158.468 176.197 149.148C174.187 139.829 197.577 138.732 190.268 128.865Z" fill="#081E29"/>
<path d="M135.995 127.768C135.995 127.768 141.112 129.413 146.411 126.123" stroke="#081E29" stroke-width="2.06821" stroke-miterlimit="10" stroke-linecap="round" stroke-linejoin="round"/>
<path d="M166.695 133.981C166.695 133.981 161.395 133.433 157.741 128.499" stroke="#081E29" stroke-width="2.06821" stroke-miterlimit="10" stroke-linecap="round" stroke-linejoin="round"/>
<path d="M158.654 138.001C158.472 139.098 159.202 140.194 160.299 140.56C161.395 140.742 162.492 140.011 162.857 138.915C163.04 137.819 162.309 136.722 161.213 136.357C160.116 136.174 158.837 136.905 158.654 138.001Z" fill="#081E29"/>
<path d="M137.64 133.798C137.457 134.895 138.188 135.991 139.284 136.357C140.381 136.539 141.477 135.808 141.843 134.712C142.025 133.616 141.294 132.519 140.198 132.154C139.102 131.971 138.005 132.702 137.64 133.798Z" fill="#081E29"/>
<path d="M151.345 132.154C151.345 132.154 143.853 143.666 148.786 144.58" stroke="#081E29" stroke-width="1.03411" stroke-miterlimit="10" stroke-linecap="round" stroke-linejoin="round"/>
<path d="M145.314 152.803C145.314 152.803 150.066 153.534 152.441 157.189" stroke="#081E29" stroke-width="1.03411" stroke-miterlimit="10" stroke-linecap="round" stroke-linejoin="round"/>
<path d="M148.238 153.717C148.238 153.717 150.248 160.661 152.989 157.006L148.238 153.717Z" fill="#081E29"/>
<path d="M146.411 154.63L137.274 154.448C135.812 151.524 132.523 149.879 129.051 150.61C127.955 150.793 127.041 151.341 126.31 151.889C125.031 150.793 123.386 150.428 121.559 150.793C118.818 151.341 117.173 153.9 117.356 156.458C116.99 156.458 116.625 156.458 116.259 156.641C112.422 157.554 109.864 161.392 110.777 165.046C111.691 168.884 115.528 171.077 119.366 170.163C120.097 173.635 123.752 175.828 127.406 174.914C129.782 174.366 131.609 172.721 132.34 170.529C132.888 170.529 133.619 170.529 134.168 170.346C137.091 169.615 138.919 166.874 138.188 164.133C138.188 163.767 138.005 163.402 137.822 163.036L147.873 157.92L146.411 154.63Z" fill="url(#paint0_linear_12_1531)"/>
<path d="M132.158 262.445L146.776 230.283C146.776 230.283 151.893 228.456 153.72 220.233C155.548 212.01 158.837 208.903 162.126 206.71C164.319 205.431 161.944 201.411 153.355 212.192C157.741 202.325 163.223 202.142 162.857 200.68C162.492 199.218 157.375 199.584 151.893 207.989C155.548 199.218 162.126 197.573 161.578 195.929C160.847 193.553 151.345 198.67 148.604 207.989C149.517 198.304 157.01 196.112 156.461 193.553C155.913 190.995 145.497 198.487 143.304 212.192C142.025 207.441 146.776 202.325 144.949 201.045C143.122 199.766 135.995 212.375 139.467 226.811C132.158 237.958 119.183 254.222 119.183 254.222L132.158 262.445Z" fill="#F9C4A0"/>
<path d="M92.3209 292.779C92.3209 292.779 77.8847 284.373 86.2906 273.409C94.1483 262.993 97.6203 243.075 120.645 243.989C122.472 243.989 124.3 244.72 125.579 245.633C129.234 248.374 133.985 250.202 137.091 250.933C139.101 251.481 140.746 252.76 141.112 254.039C142.391 257.511 143.487 264.638 137.822 272.861C129.782 284.739 132.706 301.368 116.077 299.723C99.4476 298.261 92.3209 292.779 92.3209 292.779Z" fill="#FF98A8"/>
<path d="M167.974 165.229C167.974 165.229 156.644 176.559 141.112 172.539" stroke="#081E29" stroke-width="1.03411" stroke-miterlimit="10" stroke-linecap="round" stroke-linejoin="round"/>
</g>
</g>
<defs>
<filter id="filter0_dd_12_1531" x="0.100403" y="0.929077" width="308.799" height="308.799" filterUnits="userSpaceOnUse" color-interpolation-filters="sRGB">
<feFlood flood-opacity="0" result="BackgroundImageFix"/>
<feColorMatrix in="SourceAlpha" type="matrix" values="0 0 0 0 0 0 0 0 0 0 0 0 0 0 0 0 0 0 127 0" result="hardAlpha"/>
<feOffset dy="16"/>
<feGaussianBlur stdDeviation="12"/>
<feColorMatrix type="matrix" values="0 0 0 0 0.196487 0 0 0 0 0.196487 0 0 0 0 0.279476 0 0 0 0.08 0"/>
<feBlend mode="multiply" in2="BackgroundImageFix" result="effect1_dropShadow_12_1531"/>
<feColorMatrix in="SourceAlpha" type="matrix" values="0 0 0 0 0 0 0 0 0 0 0 0 0 0 0 0 0 0 127 0" result="hardAlpha"/>
<feOffset dy="12"/>
<feGaussianBlur stdDeviation="6"/>
<feColorMatrix type="matrix" values="0 0 0 0 0.196487 0 0 0 0 0.196487 0 0 0 0 0.279476 0 0 0 0.08 0"/>
<feBlend mode="multiply" in2="effect1_dropShadow_12_1531" result="effect2_dropShadow_12_1531"/>
<feBlend mode="normal" in="SourceGraphic" in2="effect2_dropShadow_12_1531" result="shape"/>
</filter>
<linearGradient id="paint0_linear_12_1531" x1="110.906" y1="162.741" x2="148.289" y2="162.741" gradientUnits="userSpaceOnUse">
<stop stop-color="#FFCBD3" stop-opacity="0.72"/>
<stop offset="0.9874" stop-color="#FF98A8" stop-opacity="0.1"/>
</linearGradient>
</defs>
</svg>
