<svg width="309" height="310" viewBox="0 0 309 310" fill="none" xmlns="http://www.w3.org/2000/svg">
<g filter="url(#filter0_dd_12_1530)">
<mask id="mask0_12_1530" style="mask-type:alpha" maskUnits="userSpaceOnUse" x="24" y="8" width="261" height="262">
<circle cx="154.5" cy="139.329" r="130.4" fill="#C4C4C4"/>
</mask>
<g mask="url(#mask0_12_1530)">
<circle cx="154.5" cy="139.329" r="130.4" fill="white"/>
<path d="M79.0525 261.369C79.6007 251.501 87.4584 245.653 91.4786 237.247C97.1434 225.37 87.0929 215.319 100.067 203.624C113.041 192.112 106.463 186.812 114.138 177.493C121.996 168.173 137.894 170.914 137.894 170.914H170.421C170.421 170.914 186.319 168.173 194.176 177.493C202.034 186.812 195.273 192.112 208.247 203.624C221.221 215.136 211.171 225.187 216.836 237.247C219.211 242.181 223.049 246.019 225.79 250.77C238.947 272.15 218.846 299.012 195.821 299.012C195.821 299.012 112.311 299.012 112.128 299.012C96.5952 304.312 85.4483 302.302 87.6411 288.596C89.4685 278.729 78.5043 271.054 79.0525 261.369Z" fill="#FF647C"/>
<path d="M154.34 154.651L170.055 152.092C170.055 152.092 170.055 172.741 170.055 187.178C170.055 201.066 155.436 204.355 154.34 204.72C153.243 204.538 138.807 201.248 138.807 187.36C138.807 172.924 138.807 152.275 138.807 152.275L154.34 154.651Z" fill="#F9D3B7"/>
<path d="M154.34 132.722L138.625 130.164C138.625 130.164 138.625 150.813 138.625 165.249C138.625 172.193 142.279 176.579 145.934 179.137C149.589 181.696 153.974 182.792 158.543 182.609C162.563 182.426 167.862 180.599 169.507 176.944C170.604 174.386 169.873 170.366 169.873 165.432C169.873 150.996 169.873 130.347 169.873 130.347L154.34 132.722Z" fill="#F7B7A1"/>
<path d="M183.578 125.23C183.578 125.23 183.761 122.489 189.243 121.393C194.725 120.296 196.735 139.118 186.684 141.128C176.634 143.138 177.73 129.25 183.578 125.23Z" fill="#F4C19F"/>
<path d="M132.594 135.463C132.594 135.463 131.315 132.905 125.833 134.001C120.351 135.098 125.833 153.189 135.701 151.179C145.751 149.351 139.356 136.925 132.594 135.463Z" fill="#F4C19F"/>
<path d="M165.852 171.462C181.02 168.356 190.887 153.554 187.781 138.57L183.578 117.738C180.471 102.571 165.67 92.7028 150.685 95.8094C135.518 98.9159 125.65 113.718 128.757 128.702L132.96 149.534C135.884 164.518 150.685 174.569 165.852 171.462Z" fill="#F9D3B7"/>
<path d="M136.615 147.158C134.97 138.752 145.934 139.301 158.726 136.742C171.7 134.184 181.568 129.433 183.212 137.839C184.857 146.245 172.796 139.849 159.822 142.59C147.213 145.148 138.442 155.747 136.615 147.158Z" fill="#F7B7A1"/>
<path d="M118.706 127.423C126.016 117.555 121.447 118.286 122.544 108.418C123.64 98.5505 134.239 90.1446 134.239 90.1446C134.239 90.1446 124.006 81.7387 131.315 75.7084C138.625 69.4954 145.934 71.14 145.934 71.14C145.934 71.14 152.695 58.7139 165.487 66.2061C176.451 72.6019 170.604 81.1905 166.218 85.028C170.055 86.4898 178.096 90.1446 181.75 96.5404C186.684 105.129 182.481 106.956 192.897 113.169C203.313 119.565 182.299 129.616 187.964 137.291C193.628 144.966 189.791 149.351 189.791 149.351C189.791 149.351 191.07 142.955 185.222 140.214C179.375 137.473 177.182 132.905 182.299 123.403C187.233 114.083 152.33 122.672 142.828 103.484C141.548 124.865 124.554 125.961 132.777 132.722C141 139.483 140.818 144.6 136.432 149.351C132.046 154.102 135.701 159.584 135.701 159.584C135.701 159.584 130.402 157.026 132.777 147.707C134.787 138.57 111.397 137.473 118.706 127.423Z" fill="#081E29"/>
<path d="M172.979 126.509C172.979 126.509 167.862 128.154 162.563 124.864" stroke="#081E29" stroke-width="2.06821" stroke-miterlimit="10" stroke-linecap="round" stroke-linejoin="round"/>
<path d="M142.279 132.722C142.279 132.722 147.579 132.174 151.233 127.24" stroke="#081E29" stroke-width="2.06821" stroke-miterlimit="10" stroke-linecap="round" stroke-linejoin="round"/>
<path d="M150.32 136.742C150.503 137.839 149.772 138.935 148.675 139.301C147.579 139.483 146.482 138.752 146.117 137.656C145.934 136.56 146.665 135.463 147.761 135.098C149.041 134.915 150.137 135.646 150.32 136.742Z" fill="#081E29"/>
<path d="M171.334 132.539C171.517 133.636 170.786 134.732 169.69 135.098C168.593 135.28 167.497 134.549 167.132 133.453C166.949 132.357 167.68 131.26 168.776 130.895C169.873 130.712 170.969 131.443 171.334 132.539Z" fill="#081E29"/>
<path d="M159.457 152.64C159.274 151.909 159.274 151.179 159.274 150.448C159.274 147.707 162.563 146.976 163.66 149.534C164.025 150.265 164.208 150.813 164.391 151.544C164.756 152.64 164.756 153.737 164.573 154.468C164.208 156.661 161.65 157.209 160.37 155.381C160.005 154.651 159.639 153.737 159.457 152.64Z" fill="#081E29"/>
<path d="M157.629 130.895C157.629 130.895 165.121 142.407 160.188 143.321" stroke="#081E29" stroke-width="1.03411" stroke-miterlimit="10" stroke-linecap="round" stroke-linejoin="round"/>
<path d="M177.182 217.695L171.152 182.792C171.152 182.792 166.583 179.685 166.949 171.28C167.314 162.874 164.756 159.036 162.38 156.112C160.553 154.285 163.842 150.996 169.507 163.605C167.68 153.006 162.563 151.361 163.111 150.082C163.842 148.803 168.776 150.448 171.883 159.95C170.603 150.448 164.756 147.341 165.67 145.879C166.949 143.869 174.806 151.179 174.989 160.864C176.634 151.179 169.873 147.158 170.969 144.965C172.065 142.773 180.289 152.64 178.827 166.346C181.202 161.96 178.096 155.93 180.106 155.199C182.116 154.468 185.953 168.356 178.827 181.33C183.03 193.939 191.435 213.126 191.435 213.126L177.182 217.695Z" fill="#F9C4A0"/>
<path d="M207.882 296.637C207.882 296.637 223.963 288.962 218.663 267.034C213.729 246.019 215.374 211.299 192.897 202.893C191.253 202.162 189.243 202.528 187.781 203.624C183.578 206.73 178.461 207.461 175.355 207.644C173.162 207.644 171.335 209.106 170.604 211.116C168.593 216.416 165.67 227.745 168.959 244.009C173.71 267.399 166.583 294.079 183.212 298.464C199.659 302.85 207.882 296.637 207.882 296.637Z" fill="#FF98A8"/>
<path d="M140.086 163.239C140.086 163.239 150.502 175.3 165.852 171.462" stroke="#081E29" stroke-width="1.03411" stroke-miterlimit="10" stroke-linecap="round" stroke-linejoin="round"/>
</g>
</g>
<defs>
<filter id="filter0_dd_12_1530" x="0.100464" y="0.929077" width="308.799" height="308.799" filterUnits="userSpaceOnUse" color-interpolation-filters="sRGB">
<feFlood flood-opacity="0" result="BackgroundImageFix"/>
<feColorMatrix in="SourceAlpha" type="matrix" values="0 0 0 0 0 0 0 0 0 0 0 0 0 0 0 0 0 0 127 0" result="hardAlpha"/>
<feOffset dy="16"/>
<feGaussianBlur stdDeviation="12"/>
<feColorMatrix type="matrix" values="0 0 0 0 0.196487 0 0 0 0 0.196487 0 0 0 0 0.279476 0 0 0 0.08 0"/>
<feBlend mode="multiply" in2="BackgroundImageFix" result="effect1_dropShadow_12_1530"/>
<feColorMatrix in="SourceAlpha" type="matrix" values="0 0 0 0 0 0 0 0 0 0 0 0 0 0 0 0 0 0 127 0" result="hardAlpha"/>
<feOffset dy="12"/>
<feGaussianBlur stdDeviation="6"/>
<feColorMatrix type="matrix" values="0 0 0 0 0.196487 0 0 0 0 0.196487 0 0 0 0 0.279476 0 0 0 0.08 0"/>
<feBlend mode="multiply" in2="effect1_dropShadow_12_1530" result="effect2_dropShadow_12_1530"/>
<feBlend mode="normal" in="SourceGraphic" in2="effect2_dropShadow_12_1530" result="shape"/>
</filter>
</defs>
</svg>
