<svg width="309" height="310" viewBox="0 0 309 310" fill="none" xmlns="http://www.w3.org/2000/svg">
<g filter="url(#filter0_dd_12_1529)">
<mask id="mask0_12_1529" style="mask-type:alpha" maskUnits="userSpaceOnUse" x="24" y="8" width="261" height="262">
<circle cx="154.5" cy="139.329" r="130.4" fill="#C4C4C4"/>
</mask>
<g mask="url(#mask0_12_1529)">
<circle cx="154.5" cy="139.329" r="130.4" fill="white"/>
<path d="M230.013 261.314C229.465 251.446 221.607 245.599 217.587 237.193C211.922 225.315 221.973 215.265 208.998 203.569C196.024 192.057 202.602 186.758 194.928 177.438C187.07 168.118 171.172 170.86 171.172 170.86H138.462C138.462 170.86 122.564 168.118 114.706 177.438C106.849 186.758 113.61 192.057 100.636 203.569C87.6613 215.082 97.7118 225.132 92.0469 237.193C89.6714 242.127 85.8339 245.964 83.0929 250.715C69.9358 272.096 90.0368 298.958 113.062 298.958C113.062 298.958 196.572 298.958 196.755 298.958C205.892 298.958 214.846 295.12 221.242 288.542C228.003 281.232 230.561 270.999 230.013 261.314Z" fill="#FF647C"/>
<path d="M154.543 154.596L138.828 152.038C138.828 152.038 138.828 172.687 138.828 187.123C138.828 201.011 153.446 204.3 154.543 204.666C155.639 204.483 170.075 201.194 170.075 187.306C170.075 172.87 170.075 152.22 170.075 152.22L154.543 154.596Z" fill="#F9D3B7"/>
<path d="M154.543 134.86L138.828 132.302C138.828 132.302 138.828 152.951 138.828 167.387C138.828 170.859 139.741 173.783 141.203 176.159C147.051 186.209 162.035 186.209 167.883 176.159C169.345 173.783 170.258 170.859 170.258 167.387C170.258 152.951 170.258 132.302 170.258 132.302L154.543 134.86Z" fill="#F7B7A1"/>
<path d="M128.229 131.937C128.229 131.937 127.498 129.196 121.833 129.196C116.168 129.196 117.995 148.017 128.229 148.017C138.279 148.2 134.442 134.678 128.229 131.937Z" fill="#F4C19F"/>
<path d="M180.126 131.937C180.126 131.937 180.857 129.196 186.522 129.196C192.187 129.196 190.359 148.017 180.126 148.017C169.893 148.2 173.73 134.678 180.126 131.937Z" fill="#F4C19F"/>
<path d="M154.543 173.783C139.193 173.783 126.584 161.174 126.584 145.825V124.627C126.584 109.277 139.193 96.6685 154.543 96.6685C169.893 96.6685 182.502 109.277 182.502 124.627V145.825C182.502 161.174 169.893 173.783 154.543 173.783Z" fill="url(#paint0_linear_12_1529)"/>
<path d="M178.298 144.363C178.298 135.774 167.7 138.515 154.543 138.515C141.386 138.515 130.787 135.774 130.787 144.363C130.787 152.951 141.386 145.276 154.543 145.276C167.7 145.276 178.298 152.951 178.298 144.363Z" fill="#F7B7A1"/>
<path d="M192.186 121.521C183.05 113.298 187.801 113.115 184.694 103.612C181.588 94.1102 169.71 88.0799 169.71 88.0799C169.71 88.0799 178.116 77.8466 169.71 73.2782C161.304 68.7098 154.543 71.6336 154.543 71.6336C154.543 71.6336 145.406 60.8521 134.442 70.7199C124.939 79.3085 132.432 86.2525 137.365 89.359C133.893 91.5519 126.584 96.8512 124.391 103.795C121.285 113.298 125.853 114.028 116.716 122.434C107.579 130.657 130.421 136.505 126.401 145.094C122.381 153.682 126.949 157.154 126.949 157.154C126.949 157.154 124.391 151.124 129.691 147.286C134.807 143.449 136.086 138.515 129.325 130.292C122.564 122.069 158.563 123.713 164.045 102.882C169.527 123.713 186.339 121.338 179.578 129.561C172.816 137.784 173.913 142.718 179.212 146.556C184.329 150.393 181.953 156.423 181.953 156.423C181.953 156.423 186.522 152.951 182.501 144.363C178.481 135.774 201.14 129.744 192.186 121.521Z" fill="#081E29"/>
<path d="M138.828 131.206C138.828 131.206 144.127 131.754 148.695 127.551" stroke="#081E29" stroke-width="2.06821" stroke-miterlimit="10" stroke-linecap="round" stroke-linejoin="round"/>
<path d="M170.075 131.206C170.075 131.206 164.776 131.754 160.208 127.551" stroke="#081E29" stroke-width="2.06821" stroke-miterlimit="10" stroke-linecap="round" stroke-linejoin="round"/>
<path d="M154.543 132.485C154.543 132.485 149.426 145.276 154.543 145.276" stroke="#081E29" stroke-width="1.03411" stroke-miterlimit="10" stroke-linecap="round" stroke-linejoin="round"/>
<path d="M145.772 136.322C145.772 137.419 144.858 138.515 143.579 138.515C142.482 138.515 141.386 137.601 141.386 136.322C141.386 135.226 142.3 134.129 143.579 134.129C144.858 134.129 145.772 135.043 145.772 136.322Z" fill="#081E29"/>
<path d="M165.141 138.515C166.353 138.515 167.334 137.533 167.334 136.322C167.334 135.111 166.353 134.129 165.141 134.129C163.93 134.129 162.949 135.111 162.949 136.322C162.949 137.533 163.93 138.515 165.141 138.515Z" fill="#081E29"/>
<path d="M149.792 151.672C149.792 151.672 154.36 150.941 159.111 152.769" stroke="#081E29" stroke-width="1.03411" stroke-miterlimit="10" stroke-linecap="round" stroke-linejoin="round"/>
<path d="M178.116 136.871C179.761 136.871 181.04 135.591 181.04 133.947V101.42C181.04 99.775 179.761 98.4958 178.116 98.4958C176.471 98.4958 175.192 99.775 175.192 101.42V133.947C175.192 135.409 176.471 136.871 178.116 136.871Z" fill="#F7EEEA"/>
<path d="M173.182 134.495C173.182 137.236 175.375 139.429 178.116 139.429C180.857 139.429 183.05 137.236 183.05 134.495C183.05 131.754 180.857 129.561 178.116 129.561C175.375 129.561 173.182 131.754 173.182 134.495Z" fill="#F7EEEA"/>
<path d="M175.192 134.495C175.192 136.14 176.471 137.419 178.116 137.419C179.761 137.419 181.04 136.14 181.04 134.495C181.04 132.85 179.761 131.571 178.116 131.571C176.471 131.571 175.192 132.85 175.192 134.495Z" fill="#CE4B59"/>
<path d="M179.212 101.785C179.212 101.054 178.664 100.506 177.933 100.506C177.202 100.506 176.654 101.054 176.654 101.785V107.998H179.03V101.785H179.212Z" fill="#DBD8D8"/>
<path d="M176.837 107.998V133.581C176.837 134.312 177.385 134.86 178.116 134.86C178.847 134.86 179.395 134.312 179.395 133.581V107.998H176.837Z" fill="#CE4B59"/>
<path d="M178.299 103.978H181.04" stroke="#081E29" stroke-width="0.93287" stroke-miterlimit="10" stroke-linecap="round" stroke-linejoin="round"/>
<path d="M178.299 113.846H181.04" stroke="#081E29" stroke-width="0.93287" stroke-miterlimit="10" stroke-linecap="round" stroke-linejoin="round"/>
<path d="M179.76 105.988H181.04" stroke="#081E29" stroke-width="0.93287" stroke-miterlimit="10" stroke-linecap="round" stroke-linejoin="round"/>
<path d="M179.76 107.998H181.04" stroke="#081E29" stroke-width="0.93287" stroke-miterlimit="10" stroke-linecap="round" stroke-linejoin="round"/>
<path d="M179.76 111.836H181.04" stroke="#081E29" stroke-width="0.93287" stroke-miterlimit="10" stroke-linecap="round" stroke-linejoin="round"/>
<path d="M179.76 110.008H181.04" stroke="#081E29" stroke-width="0.93287" stroke-miterlimit="10" stroke-linecap="round" stroke-linejoin="round"/>
<path d="M178.299 123.713H181.04" stroke="#081E29" stroke-width="0.93287" stroke-miterlimit="10" stroke-linecap="round" stroke-linejoin="round"/>
<path d="M179.76 115.856H181.04" stroke="#081E29" stroke-width="0.93287" stroke-miterlimit="10" stroke-linecap="round" stroke-linejoin="round"/>
<path d="M179.76 117.866H181.04" stroke="#081E29" stroke-width="0.93287" stroke-miterlimit="10" stroke-linecap="round" stroke-linejoin="round"/>
<path d="M179.76 121.703H181.04" stroke="#081E29" stroke-width="0.93287" stroke-miterlimit="10" stroke-linecap="round" stroke-linejoin="round"/>
<path d="M179.76 119.693H181.04" stroke="#081E29" stroke-width="0.93287" stroke-miterlimit="10" stroke-linecap="round" stroke-linejoin="round"/>
<path d="M168.613 169.946C168.613 169.946 154.725 177.986 140.838 170.129" stroke="#081E29" stroke-width="1.03411" stroke-miterlimit="10" stroke-linecap="round" stroke-linejoin="round"/>
</g>
</g>
<defs>
<filter id="filter0_dd_12_1529" x="0.100342" y="0.929077" width="308.799" height="308.799" filterUnits="userSpaceOnUse" color-interpolation-filters="sRGB">
<feFlood flood-opacity="0" result="BackgroundImageFix"/>
<feColorMatrix in="SourceAlpha" type="matrix" values="0 0 0 0 0 0 0 0 0 0 0 0 0 0 0 0 0 0 127 0" result="hardAlpha"/>
<feOffset dy="16"/>
<feGaussianBlur stdDeviation="12"/>
<feColorMatrix type="matrix" values="0 0 0 0 0.196487 0 0 0 0 0.196487 0 0 0 0 0.279476 0 0 0 0.08 0"/>
<feBlend mode="multiply" in2="BackgroundImageFix" result="effect1_dropShadow_12_1529"/>
<feColorMatrix in="SourceAlpha" type="matrix" values="0 0 0 0 0 0 0 0 0 0 0 0 0 0 0 0 0 0 127 0" result="hardAlpha"/>
<feOffset dy="12"/>
<feGaussianBlur stdDeviation="6"/>
<feColorMatrix type="matrix" values="0 0 0 0 0.196487 0 0 0 0 0.196487 0 0 0 0 0.279476 0 0 0 0.08 0"/>
<feBlend mode="multiply" in2="effect1_dropShadow_12_1529" result="effect2_dropShadow_12_1529"/>
<feBlend mode="normal" in="SourceGraphic" in2="effect2_dropShadow_12_1529" result="shape"/>
</filter>
<linearGradient id="paint0_linear_12_1529" x1="154.558" y1="150.627" x2="154.558" y2="94.6392" gradientUnits="userSpaceOnUse">
<stop offset="0.2211" stop-color="#F9D3B7"/>
<stop offset="0.8593" stop-color="#D26C5E"/>
</linearGradient>
</defs>
</svg>
