<svg width="17" height="16" viewBox="0 0 17 16" fill="none" xmlns="http://www.w3.org/2000/svg">
<path d="M2.97919 8.77087V15.1459H14.3125V8.77087" stroke="grey" stroke-linecap="square"/>
<path fill-rule="evenodd" clip-rule="evenodd" d="M2.97919 0.979187L0.854192 4.52085C0.851989 5.50431 1.52663 6.36007 2.48343 6.58749C3.44022 6.81491 4.42777 6.35424 4.86832 5.47498C5.22444 6.19234 5.9562 6.64603 6.75709 6.64603C7.55798 6.64603 8.28974 6.19234 8.64586 5.47498C9.00198 6.19234 9.73374 6.64603 10.5346 6.64603C11.3355 6.64603 12.0673 6.19234 12.4234 5.47498C12.864 6.35424 13.8515 6.81491 14.8083 6.58749C15.7651 6.36007 16.4397 5.50431 16.4375 4.52085L14.3125 0.979187H2.97919Z" stroke="grey" stroke-linecap="square"/>
<path d="M7.22919 15.1459V10.8959H10.0625V15.1459" stroke="grey"/>
</svg>
